<?xml version="1.0" standalone="no"?>
<!DOCTYPE svg PUBLIC "-//W3C//DTD SVG 20010904//EN"
 "http://www.w3.org/TR/2001/REC-SVG-20010904/DTD/svg10.dtd">
<svg version="1.0" xmlns="http://www.w3.org/2000/svg"
 width="128.000000pt" height="128.000000pt" viewBox="0 0 128.000000 128.000000"
 preserveAspectRatio="xMidYMid meet">

<g transform="translate(0.000000,128.000000) scale(0.100000,-0.100000)"
fill="#000000" stroke="none">
<path d="M0 1217 l0 -62 78 -64 c42 -35 68 -54 57 -41 l-20 23 25 -8 c27 -8
28 -8 49 -6 11 1 10 5 -3 20 -10 11 -15 24 -12 30 4 5 2 12 -4 16 -5 3 -10 11
-10 18 0 6 19 -7 42 -28 37 -36 36 -33 -13 25 -30 36 -64 76 -76 90 -13 14
-23 29 -23 35 0 5 27 -19 60 -55 34 -36 66 -65 72 -65 7 0 17 -10 23 -22 7
-12 24 -32 40 -44 27 -22 28 -22 42 -3 13 17 11 21 -14 43 -15 14 -27 32 -25
40 2 14 1 14 -7 2 -8 -12 -14 -13 -37 -3 -14 7 -24 15 -21 19 4 3 13 0 22 -7
21 -17 19 -8 -6 35 -12 20 -19 39 -15 42 3 4 6 2 6 -4 0 -6 6 -13 14 -16 11
-5 11 0 -2 23 l-17 30 -112 -1 -113 0 0 -62z"/>
<path d="M240 1276 c0 -8 63 -100 75 -108 6 -4 15 -8 20 -8 6 0 4 4 -4 9 -7 5
-25 30 -40 57 -22 40 -51 69 -51 50z"/>
<path d="M280 1275 c0 -6 51 -85 55 -85 7 0 -3 47 -14 68 -10 19 -41 32 -41
17z"/>
<path d="M330 1273 c0 -15 35 -58 48 -61 10 -2 11 4 7 19 -5 16 -4 19 5 14 11
-7 29 10 30 28 0 4 -20 7 -45 7 -25 0 -45 -3 -45 -7z"/>
<path d="M430 1270 c0 -5 5 -10 10 -10 6 0 10 5 10 10 0 6 -4 10 -10 10 -5 0
-10 -4 -10 -10z"/>
<path d="M486 1268 c12 -5 27 -20 33 -32 10 -18 11 -18 5 -1 -3 11 -7 26 -7
33 0 6 -12 12 -26 11 -25 0 -25 -1 -5 -11z"/>
<path d="M564 1251 c9 -16 21 -46 29 -68 13 -39 13 -40 -10 -35 -16 3 -32 -3
-47 -17 l-23 -21 -11 25 c-7 15 -10 36 -6 49 7 29 -18 50 -51 42 -54 -14 -40
-92 17 -98 28 -3 35 -9 49 -47 9 -25 29 -55 45 -67 15 -13 25 -26 21 -30 -4
-4 -13 -2 -19 4 -17 17 -28 15 -28 -4 0 -11 -5 -14 -16 -10 -12 5 -15 2 -10
-10 5 -14 4 -15 -9 -4 -8 7 -15 29 -15 49 0 40 -18 82 -37 89 -7 2 -13 -3 -13
-12 0 -10 6 -13 15 -10 9 4 15 0 15 -8 0 -7 -9 -14 -20 -15 -17 -2 -24 7 -22
27 1 11 -61 10 -74 -1 -8 -6 -14 -26 -14 -44 0 -44 47 -85 96 -85 21 0 37 -6
40 -14 3 -9 12 -12 21 -9 10 4 14 2 9 -5 -3 -6 -2 -13 4 -17 5 -3 10 -14 10
-23 0 -12 -3 -13 -12 -4 -17 17 -28 15 -28 -4 0 -8 -5 -12 -11 -9 -6 4 -7 19
-4 36 6 25 4 29 -16 29 -12 0 -19 -3 -16 -7 4 -3 -2 -13 -13 -20 -18 -13 -24
-13 -44 1 -13 8 -23 23 -22 32 0 10 -12 24 -29 33 -16 9 -36 24 -43 34 -19 25
-80 19 -98 -8 -15 -23 -2 -61 26 -76 54 -30 115 -50 118 -40 2 7 13 6 32 -4
19 -10 27 -20 24 -30 -4 -8 -11 -12 -18 -8 -6 4 -5 -1 3 -11 10 -11 22 -15 35
-11 36 12 70 5 91 -17 l20 -21 -25 17 c-25 17 -57 20 -85 10 -20 -8 -45 -56
-45 -89 0 -14 -5 -25 -10 -25 -7 0 -7 -6 0 -20 6 -11 7 -20 1 -20 -5 0 -12 8
-16 18 -6 16 -7 16 -20 -1 -7 -10 -17 -17 -21 -16 -5 1 -20 1 -34 0 l-25 -2
23 -10 c13 -5 28 -6 33 -3 6 3 18 -3 27 -14 10 -11 26 -22 37 -24 19 -5 19 -5
-2 -14 -17 -7 -20 -13 -13 -24 8 -12 10 -12 10 -1 0 9 8 11 25 7 20 -5 25 -3
25 14 0 11 5 20 10 20 15 0 12 -21 -6 -41 -15 -16 -14 -20 6 -41 11 -13 25
-24 31 -24 5 -1 14 -2 20 -3 5 0 8 -5 5 -10 -3 -4 6 -6 19 -3 22 4 25 1 25
-27 0 -17 -5 -31 -10 -31 -18 0 24 -38 54 -50 36 -13 93 -4 128 21 32 22 45
25 29 6 -6 -8 -7 -18 -3 -22 4 -5 1 -5 -6 -1 -7 4 -20 2 -29 -5 -10 -9 -45
-13 -97 -14 -78 0 -81 -1 -62 -17 15 -11 26 -13 38 -7 10 6 19 5 23 -1 3 -5 2
-10 -4 -10 -5 0 -12 -14 -16 -30 -5 -21 -11 -28 -18 -23 -19 13 -62 10 -60 -4
2 -7 0 -13 -5 -14 -4 0 -18 -2 -32 -4 -14 -2 -19 -1 -12 2 10 4 8 11 -9 29
-25 26 -44 23 -29 -6 7 -13 7 -21 0 -25 -13 -8 -39 13 -50 40 -7 15 -9 16 -9
3 -1 -9 13 -28 29 -42 30 -25 31 -25 185 -21 86 2 159 6 164 9 4 3 6 -6 3 -19
-5 -26 -16 -32 -27 -15 -4 6 -11 7 -17 4 -6 -4 -5 -10 3 -15 10 -6 10 -9 2 -9
-7 0 -17 8 -22 18 -8 13 -10 14 -11 2 0 -13 -1 -13 -10 0 -8 12 -12 12 -18 2
-5 -7 -16 -10 -25 -6 -21 8 -22 -9 -2 -26 8 -7 12 -17 8 -23 -4 -6 -9 -2 -14
10 -4 11 -17 23 -29 26 -15 4 -20 2 -17 -8 6 -13 -11 -35 -26 -35 -5 0 -7 10
-4 23 5 20 5 20 -7 4 -18 -23 -29 -22 -16 2 12 24 -2 36 -26 23 -11 -6 -13
-11 -5 -16 6 -4 11 -11 11 -17 0 -5 -9 0 -20 11 -12 12 -25 18 -30 15 -6 -4
-10 -1 -10 4 0 19 -19 12 -20 -6 -4 -92 -23 -130 -20 -43 2 75 2 80 -11 80 -6
0 -8 -7 -5 -16 5 -14 4 -15 -9 -4 -9 7 -18 10 -22 6 -3 -3 0 -6 7 -6 7 0 10
-3 7 -7 -4 -3 -2 -12 3 -18 7 -9 6 -16 -5 -25 -8 -7 -15 -9 -15 -4 0 5 -5 2
-11 -6 -8 -12 -9 -11 -6 5 2 11 10 19 18 17 11 -3 12 -1 2 9 -11 10 -16 9 -28
-7 -24 -31 -17 -94 10 -94 8 0 11 -8 8 -20 -3 -11 -11 -20 -18 -20 -7 0 -15
-6 -18 -12 -6 -16 -27 35 -27 63 0 11 -5 29 -11 40 -6 12 -7 28 -3 37 4 9 8
19 9 22 1 3 6 16 12 30 6 14 11 28 12 32 1 5 10 24 21 43 11 20 20 40 20 46 0
11 4 16 50 69 16 19 30 40 30 46 0 7 3 20 7 30 6 16 4 16 -19 -2 -14 -10 -29
-32 -34 -49 -7 -22 -17 -31 -42 -36 -30 -6 -33 -4 -40 25 -11 41 4 86 29 86
10 0 19 -4 19 -10 0 -5 4 -10 10 -10 5 0 7 7 4 15 -4 8 -12 15 -20 15 -8 0
-14 5 -14 10 0 7 -6 7 -20 0 -11 -6 -20 -19 -20 -29 0 -10 -6 -24 -14 -30 -11
-10 -16 -8 -21 8 -21 69 -10 101 36 101 17 0 28 4 25 8 -4 6 -45 9 -66 3 -10
-2 -31 -60 -26 -69 3 -5 8 -24 11 -42 6 -33 6 -34 -14 -16 -10 9 -29 40 -41
68 -18 41 -20 56 -11 75 17 37 13 49 -8 26 -15 -16 -19 -33 -18 -72 1 -29 7
-53 14 -55 18 -7 44 -62 37 -79 -3 -8 -21 -23 -40 -33 -32 -17 -35 -22 -28
-49 4 -16 7 -40 8 -52 1 -28 0 -28 19 1 13 20 14 27 2 49 -14 28 -11 37 16 37
23 0 61 -40 55 -57 -3 -7 -1 -13 4 -13 6 0 6 -9 0 -24 -8 -21 -6 -25 13 -28
21 -4 21 -5 -6 -18 -25 -12 -30 -11 -55 11 l-27 24 24 -28 c14 -15 21 -27 18
-27 -10 0 28 -36 44 -43 9 -4 10 -6 2 -6 -7 -1 -10 -7 -8 -13 7 -19 -9 -71
-24 -76 -8 -3 -12 3 -11 14 4 33 1 40 -30 79 -16 21 -31 50 -31 64 -2 22 -2
23 -6 4 l-4 -22 -35 21 -34 20 0 -36 c0 -23 5 -36 13 -36 8 0 22 -9 31 -19 14
-16 15 -23 6 -41 -11 -21 -35 -23 -35 -2 0 5 -3 13 -6 17 -4 3 -7 -25 -7 -63
0 -67 1 -69 24 -69 15 0 24 5 24 16 1 14 2 14 14 -1 7 -10 24 -18 36 -18 21 0
22 1 8 18 -8 9 -15 24 -15 32 0 9 -3 29 -7 45 -7 28 -6 29 7 10 22 -31 27 -53
14 -59 -9 -3 -8 -5 1 -5 7 -1 10 -7 7 -14 -4 -6 3 -1 14 13 l21 25 -10 -28
c-14 -38 -14 -37 25 -37 31 0 35 2 26 18 -5 10 -6 24 -1 32 6 10 9 7 13 -11 4
-23 4 -23 6 3 0 14 -4 28 -10 30 -7 2 -9 13 -5 26 9 27 26 19 26 -12 0 -13 5
-37 11 -55 10 -27 16 -31 46 -31 22 0 41 7 49 18 13 16 13 16 14 0 0 -16 13
-18 134 -18 125 0 174 10 131 26 -14 6 -13 8 5 21 26 18 44 9 30 -17 -5 -10
-10 -21 -10 -24 0 -3 69 -6 153 -6 109 0 157 4 166 12 11 10 13 10 7 1 -5 -10
3 -13 32 -13 34 0 38 3 38 23 -1 12 -5 25 -11 29 -7 5 -6 14 3 28 19 31 14 69
-13 95 -13 14 -29 25 -35 25 -5 0 -10 9 -10 21 0 14 -10 24 -30 32 -22 8 -30
18 -32 41 -2 20 -9 32 -21 34 -20 4 -79 -42 -69 -53 4 -4 -5 0 -20 10 -15 9
-25 22 -21 28 5 8 8 7 11 -1 7 -21 20 -13 15 8 -6 24 15 53 34 46 7 -3 13 -1
13 3 0 22 -30 17 -56 -10 -34 -35 -50 -38 -28 -4 8 13 13 28 10 34 -4 5 3 12
14 16 24 7 50 32 50 47 0 6 -9 0 -19 -13 -22 -28 -38 -20 -22 9 6 12 11 30 11
41 0 23 16 28 23 9 3 -10 8 -10 18 1 8 8 9 11 3 8 -7 -4 -14 2 -17 13 -3 11
-2 19 2 18 3 0 20 0 36 1 l30 1 -25 20 c-23 18 -24 20 -5 21 11 1 25 2 32 2 7
0 12 2 11 6 -1 3 1 20 5 36 7 26 15 33 55 45 26 8 57 13 70 12 12 -1 22 2 22
6 0 4 -14 8 -30 9 -27 2 -80 44 -80 62 1 18 20 27 64 26 34 0 51 4 54 14 3 9
0 12 -10 9 -8 -4 -21 -2 -29 2 -7 5 -18 5 -24 0 -16 -13 -43 -6 -59 15 -12 17
-11 20 8 30 14 7 33 8 56 1 29 -7 41 -5 69 12 18 11 38 30 45 42 6 12 29 32
50 44 21 11 48 29 58 39 11 10 23 16 26 12 4 -4 -22 -34 -58 -67 -36 -32 -52
-52 -37 -42 32 19 47 12 23 -11 -24 -24 -20 -28 19 -21 42 8 43 3 9 -41 -30
-40 -26 -51 13 -34 l28 12 -30 -25 c-16 -14 -33 -25 -37 -26 -9 0 -11 -30 -3
-30 3 0 25 10 50 23 l44 22 0 258 0 257 -160 0 c-159 0 -159 0 -170 -24 -10
-21 -15 -23 -35 -14 -33 16 -58 -6 -50 -45 3 -16 0 -40 -9 -57 -17 -34 -18
-40 -6 -40 5 0 11 10 15 23 3 13 24 38 47 57 24 19 39 27 35 19 -4 -8 1 -3 11
10 26 36 56 68 48 53 -4 -8 -8 -32 -9 -54 -2 -33 0 -37 9 -24 7 9 17 16 23 16
6 0 12 5 14 12 3 9 6 9 12 0 9 -16 -105 -122 -132 -122 -11 0 -12 -3 -3 -14
15 -18 -9 -39 -41 -34 -20 3 -23 -1 -23 -28 -1 -35 -20 -64 -42 -64 -13 0 -13
2 -2 17 14 16 20 83 8 83 -10 0 -20 -50 -13 -61 4 -7 -1 -9 -12 -7 -26 5 -22
46 10 111 32 64 32 78 0 116 -25 30 -52 43 -38 19 6 -10 4 -10 -7 0 -22 20
-56 14 -78 -14 -12 -15 -21 -31 -21 -36 0 -21 35 -84 57 -103 27 -24 30 -60 7
-69 -12 -5 -15 -2 -12 12 3 11 -2 23 -12 30 -20 12 -30 6 -30 -19 0 -9 -8 -19
-19 -22 -16 -4 -19 1 -19 37 0 30 2 36 8 21 7 -18 8 -19 15 -3 4 11 -1 34 -14
58 -12 22 -21 54 -21 69 0 39 -30 91 -53 91 -16 0 -16 -2 -3 -29z m616 -14 c0
-2 -10 -12 -22 -23 l-23 -19 19 23 c18 21 26 27 26 19z m-280 -22 c0 -9 -6
-12 -15 -9 -8 4 -12 10 -9 15 8 14 24 10 24 -6z m-152 -39 c-2 -26 -7 -31 -28
-31 -30 0 -39 34 -15 58 24 24 47 10 43 -27z m-275 28 c9 -9 -19 -34 -37 -34
-16 0 -22 21 -9 33 8 9 38 9 46 1z m328 -54 c5 0 9 -10 9 -22 -1 -23 -1 -23
-15 2 -8 14 -14 32 -13 40 0 10 2 10 5 -2 2 -10 9 -18 14 -18z m295 -8 c-18
-16 -18 -16 -6 6 6 13 14 21 18 18 3 -4 -2 -14 -12 -24z m48 16 c-4 -7 -18
-27 -31 -44 -33 -44 -28 -53 10 -18 65 60 70 58 22 -10 -53 -75 -48 -76 49 -8
l51 35 -65 -66 c-47 -49 -58 -66 -42 -62 29 5 38 -11 12 -25 -16 -8 -25 -7
-42 5 -37 25 -68 20 -74 -15 -4 -16 -12 -30 -19 -30 -7 0 -25 -10 -41 -22 -23
-18 -27 -19 -21 -5 10 25 -8 21 -21 -5 -8 -18 -11 -19 -11 -6 -1 12 -6 15 -18
11 -16 -6 -16 -5 -4 10 12 15 12 17 -3 11 -10 -4 -18 0 -22 11 -8 20 13 37 39
31 12 -3 22 5 32 25 9 16 20 29 25 29 6 0 10 4 10 10 0 18 64 100 78 100 8 0
10 5 6 13 -6 9 -4 9 8 -1 13 -11 21 -9 44 12 33 29 38 31 28 14z m-540 -44 c3
-9 6 -23 6 -32 0 -15 -2 -15 -10 -2 -8 11 -12 12 -18 3 -13 -21 -52 -11 -52
12 0 12 3 25 7 28 13 13 61 7 67 -9z m-194 -65 c0 -14 -5 -19 -15 -16 -8 4
-17 2 -20 -3 -9 -14 -25 -12 -25 3 0 19 21 37 42 37 12 0 18 -7 18 -21z m-149
-64 c5 4 9 -1 9 -9 0 -19 -11 -21 -28 -4 -9 9 -12 8 -12 -6 0 -23 -34 -17 -38
7 -5 23 39 41 51 21 5 -8 12 -12 18 -9z m403 0 c-6 -16 -24 -21 -24 -7 0 11
11 22 21 22 5 0 6 -7 3 -15z m-43 -22 c13 -16 12 -17 -3 -4 -10 7 -18 15 -18
17 0 8 8 3 21 -13z m-311 -13 c0 -5 -7 -10 -15 -10 -8 0 -15 5 -15 10 0 6 7
10 15 10 8 0 15 -4 15 -10z m456 -5 c17 -17 17 -17 -13 -20 -26 -3 -25 -3 -17
19 8 20 12 20 30 1z m-199 -27 c-3 -7 -5 -2 -5 12 0 14 2 19 5 13 2 -7 2 -19
0 -25z m511 20 c17 -17 15 -38 -3 -38 -9 0 -12 6 -9 15 5 11 2 13 -10 9 -16
-6 -22 7 -9 19 9 10 17 9 31 -5z m-388 -2 c0 -3 -4 -8 -10 -11 -5 -3 -10 -1
-10 4 0 6 5 11 10 11 6 0 10 -2 10 -4z m-155 -16 c3 -5 -1 -10 -10 -10 -9 0
-13 5 -10 10 3 6 8 10 10 10 2 0 7 -4 10 -10z m39 -36 c12 -12 13 -20 5 -35
-5 -11 -15 -16 -21 -13 -7 4 -8 3 -4 -4 5 -8 -1 -12 -14 -12 -20 0 -20 1 -6
16 9 8 14 20 11 25 -4 5 -2 9 4 9 5 0 12 -6 14 -12 4 -9 6 -8 6 3 1 8 -4 20
-11 27 -7 7 -9 12 -6 12 4 0 14 -7 22 -16z m68 -3 c31 17 81 2 114 -33 l29
-32 -33 27 c-48 38 -108 38 -146 -2 -15 -15 -31 -41 -36 -57 -10 -28 -10 -28
-5 6 3 19 14 44 25 55 11 12 20 28 21 36 0 10 2 10 6 2 3 -10 10 -10 25 -2z
m-237 -21 c3 -5 1 -10 -4 -10 -6 0 -11 5 -11 10 0 6 2 10 4 10 3 0 8 -4 11
-10z m293 -16 c-3 -3 5 -16 18 -29 30 -30 30 -54 3 -89 -17 -22 -28 -27 -58
-24 -30 2 -39 9 -53 38 -23 47 -22 57 7 85 15 16 35 25 56 25 18 0 30 -3 27
-6z m52 -35 c15 -28 5 -23 -15 7 -9 15 -12 23 -6 20 6 -4 16 -16 21 -27z m143
1 c-6 -22 -43 -28 -43 -7 0 18 10 27 31 27 12 0 16 -6 12 -20z m-83 -42 c0 -4
-4 -8 -9 -8 -5 0 -12 -11 -15 -25 -4 -14 -11 -25 -17 -25 -6 0 -7 -4 -4 -10 3
-6 -1 -7 -9 -4 -22 8 -20 36 2 32 14 -2 18 6 20 42 3 42 5 44 18 26 8 -11 14
-23 14 -28z m-260 22 c0 -5 -4 -10 -10 -10 -5 0 -10 5 -10 10 0 6 5 10 10 10
6 0 10 -4 10 -10z m-74 -12 c13 -21 15 -76 3 -84 -8 -5 -10 -2 -7 8 4 8 2 21
-3 29 -6 10 -9 7 -9 -12 0 -24 -3 -26 -36 -23 -26 2 -33 -1 -27 -10 4 -6 0 -3
-9 7 -38 41 -10 97 48 97 18 0 36 -5 40 -12z m281 -30 c-3 -8 -6 -5 -6 6 -1
11 2 17 5 13 3 -3 4 -12 1 -19z m-206 -25 c0 -10 2 -25 4 -34 2 -12 -3 -15
-16 -12 -21 6 -21 8 -13 41 7 26 24 29 25 5z m313 -28 c2 -6 -8 -11 -25 -10
-27 0 -35 5 -24 16 8 9 45 5 49 -6z m-296 -77 c-3 -7 -10 -14 -16 -14 -7 -1
-13 -2 -14 -4 -2 -1 -13 -3 -25 -4 -33 -4 -9 22 25 27 15 2 29 5 30 6 2 0 2
-5 0 -11z m22 -60 c0 -10 -8 -19 -17 -19 -10 -1 -31 -3 -48 -5 -35 -4 -49 13
-28 34 13 13 16 13 24 1 7 -11 9 -11 9 4 0 25 20 21 21 -5 1 -22 2 -20 15 22
5 13 6 13 14 0 6 -8 10 -23 10 -32z m35 9 c0 -26 -20 -25 -23 2 -3 16 1 22 10
19 7 -3 13 -12 13 -21z m35 3 c0 -11 -4 -20 -10 -20 -5 0 -10 9 -10 20 0 11 5
20 10 20 6 0 10 -9 10 -20z m-39 -123 c-8 -8 -11 -7 -11 4 0 9 3 19 7 23 4 4
9 2 11 -4 3 -7 -1 -17 -7 -23z m-21 -3 c0 -8 -4 -12 -10 -9 -5 3 -10 10 -10
16 0 5 5 9 10 9 6 0 10 -7 10 -16z m96 -6 c4 -7 3 -8 -4 -4 -8 4 -12 0 -12
-10 0 -14 -3 -15 -12 -6 -10 10 -10 15 2 22 19 12 17 12 26 -2z m-142 -32 c8
3 16 -2 19 -10 8 -19 -23 -17 -47 3 -12 10 -13 16 -3 26 10 11 13 10 15 -5 2
-11 9 -17 16 -14z m106 -7 c0 -6 -4 -7 -10 -4 -5 3 -10 11 -10 16 0 6 5 7 10
4 6 -3 10 -11 10 -16z m-60 -5 c0 -8 -4 -12 -10 -9 -5 3 -10 10 -10 16 0 5 5
9 10 9 6 0 10 -7 10 -16z m30 0 c0 -8 -4 -12 -10 -9 -5 3 -10 10 -10 16 0 5 5
9 10 9 6 0 10 -7 10 -16z m258 -110 c-2 -13 -12 -19 -30 -20 -28 -1 -28 6 0
39 18 20 36 9 30 -19z m-268 12 c0 -3 -4 -8 -10 -11 -5 -3 -10 -1 -10 4 0 6 5
11 10 11 6 0 10 -2 10 -4z m244 -58 c-4 -6 -7 -26 -6 -45 1 -18 -3 -33 -9 -33
-6 0 -8 9 -4 20 8 24 -10 27 -31 5 -9 -8 -25 -15 -37 -15 -26 0 -42 -10 -50
-30 -4 -12 -6 -11 -6 3 -1 10 6 29 15 42 10 15 12 25 5 25 -6 0 -11 -4 -11
-10 0 -5 -5 -10 -12 -10 -6 0 -3 9 7 20 19 21 41 28 29 8 -5 -8 -2 -9 12 -3
10 4 33 8 51 8 18 0 35 7 37 14 3 7 8 13 11 13 4 0 3 -5 -1 -12z m-664 -33 c0
-8 -9 -15 -20 -15 -25 0 -26 17 -2 23 9 3 18 5 20 6 1 0 2 -6 2 -14z m740 -36
c0 -5 4 -7 10 -4 6 3 7 -1 4 -9 -3 -9 -15 -16 -25 -16 -10 0 -22 0 -26 -1 -5
0 -10 7 -11 17 -2 9 1 14 6 10 6 -3 13 -2 17 4 8 13 25 13 25 -1z m-310 -3 c0
-3 -4 -8 -10 -11 -5 -3 -10 -1 -10 4 0 6 5 11 10 11 6 0 10 -2 10 -4z m40 -16
c0 -11 -4 -20 -9 -20 -14 0 -23 18 -16 30 10 17 25 11 25 -10z m-260 -5 c0 -8
-4 -15 -9 -15 -5 0 -11 7 -15 15 -3 9 0 15 9 15 8 0 15 -7 15 -15z m378 -17
c-6 -18 -28 -21 -28 -4 0 9 7 16 16 16 9 0 14 -5 12 -12z m-709 -58 c1 -12 -2
-12 -15 2 -11 11 -14 23 -8 39 l8 24 7 -25 c4 -14 7 -32 8 -40z m394 40 c-3
-12 -8 -19 -11 -16 -5 6 5 36 12 36 2 0 2 -9 -1 -20z m-18 -40 c3 -5 -1 -10
-9 -10 -9 0 -16 5 -16 10 0 6 4 10 9 10 6 0 13 -4 16 -10z m202 4 c-3 -3 -12
-4 -19 -1 -8 3 -5 6 6 6 11 1 17 -2 13 -5z m-237 -14 c0 -5 -4 -10 -9 -10 -6
0 -13 5 -16 10 -3 6 1 10 9 10 9 0 16 -4 16 -10z m-390 -15 c0 -8 -4 -15 -10
-15 -5 0 -7 7 -4 15 4 8 8 15 10 15 2 0 4 -7 4 -15z"/>
<path d="M704 772 c8 -14 -20 -42 -43 -42 -9 0 -23 6 -30 13 -11 10 -11 8 -2
-10 14 -28 51 -30 74 -5 20 22 22 38 5 48 -6 4 -8 3 -4 -4z"/>
<path d="M655 760 c-3 -5 -1 -10 4 -10 6 0 11 5 11 10 0 6 -2 10 -4 10 -3 0
-8 -4 -11 -10z"/>
<path d="M766 202 c-2 -4 4 -9 15 -9 11 -1 17 2 14 8 -7 11 -22 12 -29 1z"/>
<path d="M820 1270 c0 -5 5 -10 10 -10 6 0 10 5 10 10 0 6 -4 10 -10 10 -5 0
-10 -4 -10 -10z"/>
<path d="M880 1269 c0 -5 5 -7 10 -4 6 3 10 8 10 11 0 2 -4 4 -10 4 -5 0 -10
-5 -10 -11z"/>
<path d="M910 1269 c0 -5 4 -8 9 -5 5 4 11 1 13 -6 3 -8 7 -6 11 5 5 12 1 17
-13 17 -11 0 -20 -5 -20 -11z"/>
<path d="M260 1200 c0 -5 5 -10 10 -10 6 0 10 5 10 10 0 6 -4 10 -10 10 -5 0
-10 -4 -10 -10z"/>
<path d="M0 962 l0 -182 28 -11 c15 -6 36 -12 47 -14 18 -4 18 -2 -4 15 l-23
20 33 -7 34 -6 -42 34 c-23 19 -42 37 -42 40 -1 10 51 -2 94 -21 22 -10 56
-25 77 -33 20 -8 39 -25 43 -36 3 -12 17 -24 31 -27 13 -3 22 -10 19 -14 -2
-4 7 -5 20 -2 15 2 25 11 25 21 0 9 7 27 16 39 9 13 14 24 13 25 -2 1 -13 7
-24 13 -29 16 -96 29 -73 14 26 -16 22 -30 -7 -30 -16 0 -25 6 -25 16 0 8 -4
12 -10 9 -5 -3 -10 -2 -10 3 0 5 -21 13 -47 17 -76 10 -91 16 -98 33 -5 14 -4
15 6 5 7 -7 19 -13 27 -13 7 0 0 11 -15 24 -29 26 -15 29 25 7 13 -7 26 -10
29 -7 7 7 -22 36 -36 36 -6 0 -11 6 -11 14 0 7 -10 20 -22 29 -22 14 -22 15
-3 14 11 -1 22 -5 25 -8 3 -4 16 -9 30 -13 14 -4 20 -4 14 1 -7 4 -19 24 -27
43 -8 19 -38 57 -66 85 l-51 49 0 -182z m51 101 c13 -16 12 -17 -3 -4 -10 7
-18 15 -18 17 0 8 8 3 21 -13z m53 -52 c-2 -3 -12 3 -22 13 -16 17 -16 18 5 5
12 -7 20 -15 17 -18z m-34 -61 c0 -5 -4 -10 -10 -10 -5 0 -10 5 -10 10 0 6 5
10 10 10 6 0 10 -4 10 -10z"/>
<path d="M881 1100 c-13 -11 -19 -20 -14 -20 6 0 18 9 28 20 23 25 17 25 -14
0z"/>
<path d="M830 1075 c-11 -13 -10 -14 4 -9 9 3 16 10 16 15 0 13 -6 11 -20 -6z"/>
<path d="M1087 805 c-4 -8 -3 -16 1 -19 13 -8 35 11 28 23 -10 15 -23 14 -29
-4z"/>
<path d="M0 520 c0 -139 4 -251 9 -254 5 -3 7 4 3 16 -3 13 -1 19 6 15 5 -4
12 -1 15 5 3 9 10 7 21 -7 19 -25 20 -9 1 25 -8 14 -14 19 -15 11 0 -22 -14
-4 -16 22 0 12 3 33 8 46 5 15 4 28 -3 37 -15 18 -8 18 40 -2 22 -9 46 -14 53
-11 8 3 1 9 -15 16 -15 6 -32 21 -37 33 -7 18 -9 19 -9 6 -1 -11 -9 -18 -21
-18 -15 0 -20 7 -20 25 0 14 4 25 9 25 11 0 21 49 11 55 -4 3 -10 16 -13 31
-4 21 -1 25 14 21 10 -3 26 2 36 10 10 8 12 12 6 8 -7 -3 -13 -2 -13 4 0 5
-12 24 -27 42 -22 25 -24 31 -10 26 11 -4 31 -10 45 -13 24 -5 23 -3 -10 20
-21 15 -38 31 -38 35 0 5 -7 11 -15 14 -12 5 -14 -29 -15 -243z"/>
<path d="M968 753 c6 -2 18 -2 25 0 6 3 1 5 -13 5 -14 0 -19 -2 -12 -5z"/>
<path d="M1251 731 c-14 -10 -26 -31 -28 -46 -3 -23 -1 -26 17 -20 16 5 11 -3
-16 -28 -35 -32 -36 -35 -17 -41 11 -4 32 -2 47 3 25 10 26 14 26 81 0 38 -1
70 -2 70 -2 0 -14 -9 -27 -19z"/>
<path d="M1110 639 c0 -6 -8 -8 -17 -5 -11 4 -8 -1 7 -13 13 -11 28 -17 32
-15 4 3 8 -4 8 -15 0 -12 -4 -21 -8 -21 -5 0 -14 -17 -20 -38 -12 -40 -46 -80
-55 -65 -3 5 -2 27 3 49 7 30 5 44 -6 62 -22 34 -40 37 -74 12 -34 -24 -34
-38 0 -20 16 9 25 9 36 -1 15 -12 20 -84 5 -93 -8 -5 -20 -46 -27 -95 -1 -13
-7 -27 -13 -30 -15 -10 -25 -61 -12 -61 6 0 16 -12 21 -26 9 -22 13 -24 25
-14 10 8 15 9 15 2 0 -6 -4 -14 -10 -17 -16 -10 -12 -28 5 -22 8 4 17 1 21 -5
4 -7 3 -8 -4 -4 -7 4 -12 1 -12 -8 0 -9 0 -19 0 -23 0 -5 5 -8 12 -8 6 0 17
-16 24 -35 15 -41 17 -63 7 -57 -5 3 -14 -1 -21 -9 -11 -12 -10 -14 3 -14 9 0
15 -9 15 -25 0 -23 3 -25 48 -25 36 0 50 5 60 20 16 26 29 25 37 -1 5 -15 14
-19 33 -17 24 3 27 8 28 40 1 31 -3 37 -22 41 -13 2 -24 1 -24 -2 0 -4 -15
-15 -32 -25 l-33 -19 23 25 c13 14 39 34 58 44 28 15 34 24 34 51 0 18 -3 33
-6 33 -19 0 -73 -34 -67 -43 3 -6 1 -7 -5 -3 -9 5 -7 14 4 31 10 16 14 34 10
50 -5 20 -3 25 14 25 11 0 20 7 20 15 0 8 6 15 14 15 9 0 14 12 14 34 0 25 -4
33 -14 29 -15 -5 -14 -24 1 -35 6 -5 3 -8 -7 -8 -9 0 -18 5 -20 11 -2 5 -11 7
-21 4 -9 -4 -14 -11 -11 -16 3 -5 -2 -6 -11 -3 -9 4 -24 -1 -33 -9 -9 -9 -33
-31 -52 -48 -19 -17 -27 -26 -17 -19 14 11 17 10 17 -7 0 -11 10 -29 23 -41
27 -26 39 -28 30 -7 -3 9 -8 13 -11 11 -10 -11 -32 17 -32 40 0 25 9 28 48 18
19 -5 20 -9 10 -23 -10 -13 -10 -14 2 -4 35 31 41 0 9 -41 -15 -19 -18 -31
-11 -38 14 -14 -7 -38 -27 -30 -8 3 -12 1 -8 -5 4 -6 0 -16 -8 -23 -13 -10
-18 -6 -31 25 -8 20 -13 40 -10 43 3 3 1 11 -6 19 -6 7 -8 16 -5 20 4 3 1 15
-5 26 -35 66 21 221 63 171 10 -12 8 -17 -7 -28 -26 -20 -12 -29 20 -15 33 15
33 35 -1 67 -26 24 -26 25 -8 38 10 8 26 14 36 14 9 0 20 7 23 16 10 25 7 82
-4 89 -6 4 -10 -7 -10 -25 0 -35 -40 -80 -72 -80 -16 0 -17 3 -7 23 6 12 18
29 26 38 17 20 24 85 12 116 -9 23 -39 33 -39 12z m-85 -50 c11 -17 -1 -21
-15 -4 -8 9 -8 15 -2 15 6 0 14 -5 17 -11z m-11 -310 c-3 -5 -10 -7 -15 -3 -5
3 -7 10 -3 15 3 5 10 7 15 3 5 -3 7 -10 3 -15z m249 -226 c7 -6 -21 -32 -35
-33 -5 0 -8 9 -8 20 0 19 28 28 43 13z"/>
<path d="M1243 573 c-13 -8 -23 -19 -23 -23 0 -3 10 -6 23 -4 12 1 25 3 30 3
4 1 7 10 7 21 0 24 -7 24 -37 3z"/>
<path d="M1260 511 c0 -5 5 -13 10 -16 6 -3 10 -2 10 4 0 5 -4 13 -10 16 -5 3
-10 2 -10 -4z"/>
<path d="M892 478 c-10 -39 -5 -58 15 -58 9 0 13 -6 10 -14 -3 -8 6 -24 21
-37 15 -13 24 -20 20 -15 -4 4 -1 15 7 23 20 19 19 37 -1 29 -22 -9 -43 21
-44 61 0 44 -17 51 -28 11z"/>
<path d="M1260 472 c0 -5 -12 -14 -27 -21 l-28 -13 23 -18 c20 -17 21 -20 6
-28 -14 -8 -11 -10 15 -14 l31 -5 0 54 c0 29 -4 53 -10 53 -5 0 -10 -4 -10 -8z"/>
<path d="M441 444 c0 -11 3 -14 6 -6 3 7 2 16 -1 19 -3 4 -6 -2 -5 -13z"/>
<path d="M411 384 c0 -7 -7 -11 -13 -10 -17 1 -18 -8 -2 -24 17 -18 27 -8 21
22 -2 12 -5 18 -6 12z"/>
<path d="M816 325 c-9 -26 -7 -32 5 -12 6 10 9 21 6 23 -2 3 -7 -2 -11 -11z"/>
<path d="M320 316 c0 -2 11 -6 25 -8 14 -3 25 -1 25 3 0 5 -11 9 -25 9 -14 0
-25 -2 -25 -4z"/>
<path d="M101 286 c2 -2 15 -9 29 -15 24 -11 24 -11 6 3 -16 13 -49 24 -35 12z"/>
<path d="M420 286 c0 -2 7 -9 15 -16 9 -7 15 -8 15 -2 0 5 -7 12 -15 16 -8 3
-15 4 -15 2z"/>
<path d="M1260 240 c-8 -5 -12 -11 -9 -14 2 -3 11 -1 19 4 8 5 12 11 9 14 -2
3 -11 1 -19 -4z"/>
<path d="M1123 133 c9 -2 23 -2 30 0 6 3 -1 5 -18 5 -16 0 -22 -2 -12 -5z"/>
<path d="M260 50 c0 -5 5 -10 10 -10 6 0 10 5 10 10 0 6 -4 10 -10 10 -5 0
-10 -4 -10 -10z"/>
</g>
</svg>
